<?xml version="1.0" standalone="no"?>
<!DOCTYPE svg PUBLIC "-//W3C//DTD SVG 20010904//EN"
 "http://www.w3.org/TR/2001/REC-SVG-20010904/DTD/svg10.dtd">
<svg version="1.0" xmlns="http://www.w3.org/2000/svg"
 width="103.000000pt" height="103.000000pt" viewBox="0 0 103.000000 103.000000"
 preserveAspectRatio="xMidYMid meet">
<metadata>
Created by potrace 1.11, written by Peter Selinger 2001-2013
</metadata>
<g transform="translate(0.000000,103.000000) scale(0.100000,-0.100000)"
fill="#000000" stroke="none">
<path d="M80 860 c13 -8 12 -10 -3 -10 -10 0 -16 -4 -12 -9 3 -5 1 -12 -5 -16
-5 -3 -10 -1 -10 6 0 16 -15 1 -15 -14 0 -7 -8 -11 -18 -11 -16 2 -17 -21 -17
-317 l0 -319 515 0 515 0 0 55 c0 54 -1 57 -32 70 -18 8 -29 14 -25 15 4 0 2
6 -5 14 -7 8 -16 12 -21 9 -4 -2 -10 3 -13 12 -5 13 -9 13 -22 3 -10 -8 -13
-8 -9 -2 4 8 -2 11 -18 10 -14 0 -25 -5 -25 -11 0 -5 -4 -4 -9 4 -8 13 -12 13
-27 0 -11 -9 -15 -9 -10 -1 8 13 -19 13 -41 -1 -7 -5 -19 -5 -25 0 -23 14 -50
14 -42 1 6 -10 4 -10 -7 -2 -16 12 -29 12 -46 1 -6 -4 -15 -3 -18 3 -5 8 -11
8 -20 0 -8 -7 -20 -8 -27 -4 -19 12 -98 13 -91 1 3 -5 -4 -4 -16 2 -16 9 -21
9 -21 -1 0 -10 -3 -9 -9 1 -8 13 -12 13 -27 0 -11 -9 -15 -9 -10 -1 8 13 -19
13 -41 -1 -7 -5 -19 -5 -25 0 -19 11 -98 12 -91 0 3 -5 -4 -4 -14 2 -11 6 -22
9 -24 7 -2 -2 -10 2 -17 10 -7 8 -9 14 -3 14 5 0 8 8 6 18 -1 9 -9 16 -16 14
-9 -2 -7 4 5 17 17 19 17 21 2 27 -9 3 -13 11 -10 16 4 6 10 5 16 -3 6 -10 8
-7 6 11 -2 14 -7 28 -13 32 -6 4 -1 8 10 8 18 1 17 2 -5 16 -14 8 -18 13 -9
11 9 -3 16 1 16 9 0 7 -5 11 -11 8 -6 -3 -2 2 8 10 20 16 20 16 0 16 -15 0
-16 2 -5 9 7 5 10 14 7 20 -4 6 -12 8 -18 5 -7 -4 -8 -2 -4 5 4 6 11 9 16 6 8
-5 8 4 -2 45 -1 8 2 14 9 13 7 -2 10 4 7 12 -4 8 -9 13 -13 11 -4 -3 -7 11 -7
30 0 23 4 33 12 30 13 -5 13 19 -1 31 -4 4 -5 2 -1 -4 10 -18 1 -16 -14 3 -8
8 -9 14 -4 13 21 -4 28 2 14 11 -9 6 -11 10 -3 10 7 0 10 6 7 13 -3 9 -27 14
-72 15 -46 1 -62 -2 -52 -8z"/>
</g>
</svg>
